<svg xmlns="http://www.w3.org/2000/svg" viewBox="0 0 800 600" width="100%" height="100%">
    
    <defs>
      <!-- Background Gradients -->
      <linearGradient id="bg-grad" x1="0%" y1="0%" x2="100%" y2="100%">
        <stop offset="0%" stop-color="#fafbfc"/>
        <stop offset="100%" stop-color="#f1f5f9"/>
      </linearGradient>
      <linearGradient id="grid-grad" x1="0%" y1="0%" x2="0%" y2="100%">
        <stop offset="0%" stop-color="#e2e8f0" stop-opacity="0.5"/>
        <stop offset="100%" stop-color="#cbd5e1" stop-opacity="0.2"/>
      </linearGradient>
      
      <!-- General Metal Gradients -->
      <linearGradient id="metal-body" x1="0%" y1="0%" x2="100%" y2="0%">
        <stop offset="0%" stop-color="#475569"/>
        <stop offset="25%" stop-color="#64748b"/>
        <stop offset="50%" stop-color="#94a3b8"/>
        <stop offset="75%" stop-color="#64748b"/>
        <stop offset="100%" stop-color="#334155"/>
      </linearGradient>
      <linearGradient id="steel-block" x1="0%" y1="0%" x2="100%" y2="100%">
        <stop offset="0%" stop-color="#cbd5e1"/>
        <stop offset="50%" stop-color="#94a3b8"/>
        <stop offset="100%" stop-color="#475569"/>
      </linearGradient>
      <linearGradient id="brass-block" x1="0%" y1="0%" x2="100%" y2="100%">
        <stop offset="0%" stop-color="#fef08a"/>
        <stop offset="50%" stop-color="#eab308"/>
        <stop offset="100%" stop-color="#ca8a04"/>
      </linearGradient>
      <linearGradient id="gold-metal" x1="0%" y1="0%" x2="100%" y2="100%">
        <stop offset="0%" stop-color="#fef08a"/>
        <stop offset="50%" stop-color="#eab308"/>
        <stop offset="100%" stop-color="#a16207"/>
      </linearGradient>
      
      <!-- Glow Filters -->
      <filter id="glow" x="-20%" y="-20%" width="140%" height="140%">
        <feGaussianBlur stdDeviation="8" result="blur" />
        <feComposite in="SourceGraphic" in2="blur" operator="over"/>
      </filter>
      <filter id="soft-shadow" x="-10%" y="-10%" width="120%" height="120%">
        <feDropShadow dx="0" dy="12" stdDeviation="10" flood-color="#0f172a" flood-opacity="0.15" />
      </filter>
      
      <!-- Tech Grid Pattern -->
      <pattern id="grid" width="40" height="40" patternUnits="userSpaceOnUse">
        <path d="M 40 0 L 0 0 0 40" fill="none" stroke="url(#grid-grad)" stroke-width="0.75" />
        <circle cx="40" cy="40" r="1" fill="#cbd5e1" opacity="0.5" />
      </pattern>
    </defs>
    
    <!-- Workbench Canvas -->
    <rect width="800" height="600" fill="url(#bg-grad)" />
    <rect width="800" height="600" fill="url(#grid)" />
    
    <!-- Outer Technical Frame -->
    <rect x="20" y="20" width="760" height="560" rx="12" fill="none" stroke="#cbd5e1" stroke-width="1.5" stroke-dasharray="10 5" opacity="0.6"/>
    
    <!-- CAD Labels -->
    <text x="40" y="45" font-family="'Rajdhani', sans-serif" font-size="12" font-weight="bold" fill="#1a3a5c" letter-spacing="2">UCOMAX ENGINEERING SOLUTIONS</text>
    <text x="40" y="565" font-family="monospace" font-size="10" fill="#64748b">SCALE: N.T.S. | TECHNICAL SCHEMATIC</text>
    <text x="760" y="45" font-family="monospace" font-size="10" fill="#e8421a" font-weight="bold" text-anchor="end">SYS_STATUS: ACTIVE</text>
    <text x="760" y="565" font-family="monospace" font-size="10" fill="#64748b" text-anchor="end">ID: 3D-SCAN-DESIGN-PRINTING</text>
    
    <!-- Product Heading Overlay -->
    <text x="40" y="80" font-family="'Rajdhani', sans-serif" font-size="28" font-weight="bold" fill="#1e293b">3D Scan, Design &amp; Printing</text>
    <text x="40" y="102" font-family="sans-serif" font-size="11" font-weight="bold" fill="#e8421a" letter-spacing="1.5">SERVICES • 3D-SCAN-DESIGN-PRINTING</text>
  
    
    <g transform="translate(100, 80)" filter="url(#soft-shadow)">
      <rect x="20" y="20" width="560" height="340" fill="#1e3a8a" rx="8" stroke="#3b82f6" stroke-width="2"/>
      <path d="M 20 20 L 580 20 M 20 60 L 580 60 M 20 100 L 580 100 M 20 140 L 580 140 M 20 180 L 580 180 M 20 220 L 580 220 M 20 260 L 580 260 M 20 300 L 580 300 M 20 340 L 580 340" stroke="#3b82f6" stroke-width="0.5" opacity="0.3"/>
      <path d="M 60 20 L 60 360 M 100 20 L 100 360 M 140 20 L 140 360 M 180 20 L 180 360 M 220 20 L 220 360 M 260 20 L 260 360 M 300 20 L 300 360 M 340 20 L 340 360 M 380 20 L 380 360 M 420 20 L 420 360 M 460 20 L 460 360 M 500 20 L 500 360 M 540 20 L 540 360" stroke="#3b82f6" stroke-width="0.5" opacity="0.3"/>
      
      <circle cx="300" cy="180" r="50" fill="none" stroke="#ffffff" stroke-width="1.5" stroke-dasharray="2 2"/>
      <path d="M 240 220 L 300 120 L 360 220 Z" fill="none" stroke="#22c55e" stroke-width="2" filter="url(#glow)"/>
      <circle cx="300" cy="120" r="4" fill="#ef4444"/>
      <text x="300" y="250" font-family="monospace" font-size="9" fill="#22c55e" text-anchor="middle">LASER MESH RESOLUTION</text>
    
    </g>
  </svg>